<svg id="Group_51110" data-name="Group 51110" xmlns="http://www.w3.org/2000/svg" xmlns:xlink="http://www.w3.org/1999/xlink" width="23.856" height="23" viewBox="0 0 23.856 23">
  <defs>
    <clipPath id="clip-path">
      <rect id="Rectangle_3843" data-name="Rectangle 3843" width="23.856" height="23" fill="#fff"/>
    </clipPath>
  </defs>
  <g id="Group_51109" data-name="Group 51109" clip-path="url(#clip-path)">
    <path id="Path_12035" data-name="Path 12035" d="M25.421,48.05H19.246a1.7,1.7,0,0,1-1.889-1.46q-.94-3.722-1.873-7.446a1.719,1.719,0,0,1,2.139-2.163c.87.208,1.74.416,2.606.641a.368.368,0,0,0,.448-.15c1.1-1.388,2.218-2.769,3.326-4.154a1.769,1.769,0,0,1,2.941-.005q1.664,2.076,3.326,4.154a.365.365,0,0,0,.445.156c.83-.221,1.667-.418,2.5-.625a1.713,1.713,0,0,1,2.138,2.138q-.686,2.759-1.384,5.515-.253,1-.507,2.01a1.686,1.686,0,0,1-1.785,1.389q-3.128,0-6.255,0" transform="translate(-13.49 -28.458)" fill="#fff"/>
    <path id="Path_12036" data-name="Path 12036" d="M39.771,167.983q-3.314,0-6.629,0a1.95,1.95,0,0,1-.5-.045,1.129,1.129,0,0,1,.259-2.213c.08,0,.16,0,.24,0q6.629,0,13.257,0a1.946,1.946,0,0,1,.5.044,1.116,1.116,0,0,1,.809,1.244,1.1,1.1,0,0,1-1.068.966c-1.118.014-2.236.006-3.354.007H39.771" transform="translate(-27.842 -144.984)" fill="#fff"/>
    <path id="Path_12037" data-name="Path 12037" d="M86.8,1.417a1.422,1.422,0,1,1-2.844.01,1.422,1.422,0,0,1,2.844-.01" transform="translate(-73.455 0)" fill="#fff"/>
    <path id="Path_12038" data-name="Path 12038" d="M2.833,40.027a1.4,1.4,0,0,1-1.418,1.41,1.416,1.416,0,1,1,1.418-1.41" transform="translate(0 -33.774)" fill="#fff"/>
    <path id="Path_12039" data-name="Path 12039" d="M169.432,41.437a1.417,1.417,0,0,1-.013-2.833,1.417,1.417,0,1,1,.013,2.833" transform="translate(-146.988 -33.774)" fill="#fff"/>
  </g>
</svg>
